<svg width="1200" height="900" viewBox="0 0 1200 900" fill="none" xmlns="http://www.w3.org/2000/svg">
  <defs>
    <linearGradient id="bg" x1="176" y1="114" x2="1034" y2="812" gradientUnits="userSpaceOnUse">
      <stop stop-color="#FBFDFF"/>
      <stop offset="1" stop-color="#EEF4FB"/>
    </linearGradient>
    <radialGradient id="glowBlue" cx="0" cy="0" r="1" gradientUnits="userSpaceOnUse" gradientTransform="translate(414 302) rotate(52.4) scale(352.675 388.631)">
      <stop stop-color="#78AFFF" stop-opacity="0.72"/>
      <stop offset="1" stop-color="#78AFFF" stop-opacity="0"/>
    </radialGradient>
    <radialGradient id="glowOrange" cx="0" cy="0" r="1" gradientUnits="userSpaceOnUse" gradientTransform="translate(866 612) rotate(41.8) scale(286.4 250.791)">
      <stop stop-color="#FFB56B" stop-opacity="0.52"/>
      <stop offset="1" stop-color="#FFB56B" stop-opacity="0"/>
    </radialGradient>
    <linearGradient id="panelStroke" x1="286" y1="158" x2="934" y2="744" gradientUnits="userSpaceOnUse">
      <stop stop-color="#FFFFFF"/>
      <stop offset="1" stop-color="#D7E4F2"/>
    </linearGradient>
    <linearGradient id="ring" x1="435" y1="248" x2="850" y2="664" gradientUnits="userSpaceOnUse">
      <stop stop-color="#255CFF"/>
      <stop offset="0.52" stop-color="#6A9FFF"/>
      <stop offset="1" stop-color="#FF9948"/>
    </linearGradient>
    <linearGradient id="ringSoft" x1="356" y1="318" x2="907" y2="702" gradientUnits="userSpaceOnUse">
      <stop stop-color="#CFE1FA"/>
      <stop offset="1" stop-color="#E4ECF7"/>
    </linearGradient>
    <linearGradient id="glass" x1="294" y1="174" x2="839" y2="672" gradientUnits="userSpaceOnUse">
      <stop stop-color="#FFFFFF" stop-opacity="0.9"/>
      <stop offset="1" stop-color="#F6FAFF" stop-opacity="0.58"/>
    </linearGradient>
    <filter id="shadow" x="162" y="94" width="874" height="718" filterUnits="userSpaceOnUse" color-interpolation-filters="sRGB">
      <feFlood flood-opacity="0" result="BackgroundImageFix"/>
      <feColorMatrix in="SourceAlpha" type="matrix" values="0 0 0 0 0 0 0 0 0 0 0 0 0 0 0 0 0 0 127 0" result="hardAlpha"/>
      <feOffset dy="24"/>
      <feGaussianBlur stdDeviation="30"/>
      <feColorMatrix type="matrix" values="0 0 0 0 0.0666667 0 0 0 0 0.160784 0 0 0 0 0.278431 0 0 0 0.12 0"/>
      <feBlend mode="normal" in2="BackgroundImageFix" result="effect1_dropShadow_0_1"/>
      <feBlend mode="normal" in="SourceGraphic" in2="effect1_dropShadow_0_1" result="shape"/>
    </filter>
    <filter id="blur" x="208" y="116" width="802" height="672" filterUnits="userSpaceOnUse" color-interpolation-filters="sRGB">
      <feFlood flood-opacity="0" result="BackgroundImageFix"/>
      <feBlend mode="normal" in="SourceGraphic" in2="BackgroundImageFix" result="shape"/>
      <feGaussianBlur stdDeviation="28" result="effect1_foregroundBlur_0_1"/>
    </filter>
  </defs>

  <rect width="1200" height="900" rx="40" fill="url(#bg)"/>
  <circle cx="1026" cy="150" r="118" fill="#E4EEFB"/>
  <circle cx="168" cy="732" r="134" fill="#E8F0FA"/>
  <circle cx="430" cy="312" r="282" fill="url(#glowBlue)"/>
  <circle cx="856" cy="604" r="246" fill="url(#glowOrange)"/>

  <g filter="url(#shadow)">
    <rect x="252" y="144" width="696" height="598" rx="42" fill="url(#glass)"/>
    <rect x="252.75" y="144.75" width="694.5" height="596.5" rx="41.25" stroke="url(#panelStroke)" stroke-width="1.5"/>
  </g>

  <g opacity="0.88" filter="url(#blur)">
    <circle cx="610" cy="450" r="184" stroke="url(#ring)" stroke-width="26"/>
    <circle cx="610" cy="450" r="266" stroke="url(#ringSoft)" stroke-width="14"/>
  </g>

  <circle cx="610" cy="450" r="188" stroke="url(#ring)" stroke-width="22"/>
  <circle cx="610" cy="450" r="270" stroke="#D6E3F2" stroke-width="8"/>
  <circle cx="610" cy="450" r="104" stroke="#E5EEF8" stroke-width="18"/>

  <path d="M446 322C490 278 554 252 620 252C703 252 782 292 831 361" stroke="#DCE8F6" stroke-width="7" stroke-linecap="round"/>
  <path d="M394 532C423 610 487 675 568 708" stroke="#D7E4F4" stroke-width="7" stroke-linecap="round"/>
  <path d="M816 548C790 620 731 680 660 707" stroke="#E3EAF4" stroke-width="7" stroke-linecap="round"/>

  <g>
    <circle cx="610" cy="180" r="18" fill="#255CFF"/>
    <circle cx="880" cy="450" r="22" fill="#FF9A47"/>
    <circle cx="610" cy="720" r="18" fill="#255CFF"/>
    <circle cx="340" cy="450" r="20" fill="#8FB6F4"/>
    <circle cx="476" cy="312" r="16" fill="#C6DAF7"/>
    <circle cx="738" cy="304" r="16" fill="#B7D0F8"/>
    <circle cx="740" cy="596" r="16" fill="#C5D9F5"/>
    <circle cx="480" cy="600" r="16" fill="#FFD2A3"/>
  </g>

  <g opacity="0.95">
    <rect x="344" y="232" width="210" height="126" rx="26" fill="#FFFFFF"/>
    <rect x="344.75" y="232.75" width="208.5" height="124.5" rx="25.25" stroke="#E3ECF7" stroke-width="1.5"/>
    <rect x="382" y="270" width="132" height="14" rx="7" fill="#D8E6F7"/>
    <rect x="382" y="300" width="96" height="14" rx="7" fill="#BFD4F5"/>
    <rect x="382" y="330" width="68" height="14" rx="7" fill="#FFCE99"/>
  </g>

  <g opacity="0.97">
    <rect x="664" y="560" width="198" height="118" rx="24" fill="#FFFFFF"/>
    <rect x="664.75" y="560.75" width="196.5" height="116.5" rx="23.25" stroke="#E3ECF7" stroke-width="1.5"/>
    <path d="M708 636L756 596L796 620L840 584" stroke="url(#ring)" stroke-width="8" stroke-linecap="round" stroke-linejoin="round"/>
    <circle cx="708" cy="636" r="7" fill="#255CFF"/>
    <circle cx="756" cy="596" r="7" fill="#7CA8FF"/>
    <circle cx="796" cy="620" r="7" fill="#FF9B49"/>
    <circle cx="840" cy="584" r="7" fill="#255CFF"/>
  </g>

  <g opacity="0.84">
    <rect x="730" y="236" width="138" height="82" rx="22" fill="#F8FBFF"/>
    <rect x="730.75" y="236.75" width="136.5" height="80.5" rx="21.25" stroke="#E2ECF7" stroke-width="1.5"/>
    <circle cx="776" cy="277" r="18" fill="#D5E4F9"/>
    <rect x="804" y="268" width="36" height="12" rx="6" fill="#C7DBF8"/>
    <rect x="804" y="290" width="26" height="10" rx="5" fill="#E4EDF8"/>
  </g>
</svg>
